# xmcd
#
# Track frame offsets: 
#        150
#        12132
#        24592
#        37496
#        49184
#        63460
#        75888
#        89366
#        103525
#        114649
#        126790
#        140236
#        153378
#        169501
#        185050
#
# Disc length: 2676 seconds
#
# Revision: 0
# Processed by: cddbd v1.5.2PL0 Copyright (c) Steve Scherf et al.
# Submitted via: ExactAudioCopy v1.0b3
#
DISCID=c90a720f
DTITLE=Various Artist - Ta Tragoudia tis Geitonias Cd3
DYEAR=2012
DGENRE=Country
TTITLE0=Grigoris Mpithikotsis - Ena Omorfo amaksi me dio aloga
TTITLE1=Biki Mosxoliou - Ksenixtisa stin porta sou
TTITLE2=Manolis Mitsias - Pare ton Ilektriko
TTITLE3=Stamatis Kokotas - Na 'xa ta xronia sou
TTITLE4=Giannis Kalatzis - O Stamoulis o Loxias
TTITLE5=Giannis Poulopoulos - San Kokkino Triantafillo
TTITLE6=Giannis Katebas - Ta Giasemakia sou
TTITLE7=Themis Adamadidis - Kriti Kerkyra kai Nio
TTITLE8=Litsa Diamanti - Eisai mia sinithia
TTITLE9=Tolis Boskopoulos - Rotise na Matheis
TTITLE10=Stratos Dionisiou - Ena Lepto Periptera
TTITLE11=Poly Panou - Pare to Daxtylidi mou
TTITLE12=Mairi Linda - Pare me sto Tilefono
TTITLE13=Stelios Kazantzidis - Nitsa Elenitsa
TTITLE14=Panos Gabalas - Oneiro Demeno
EXTD=
EXTT0=
EXTT1=
EXTT2=
EXTT3=
EXTT4=
EXTT5=
EXTT6=
EXTT7=
EXTT8=
EXTT9=
EXTT10=
EXTT11=
EXTT12=
EXTT13=
EXTT14=
PLAYORDER=
